<svg height="20" viewBox="0 0 20 20" width="20" xmlns="http://www.w3.org/2000/svg"><path d="m18 0h-16c-1.1045695 0-2 .8954305-2 2v16c0 1.1045695.8954305 2 2 2h16c1.1045695 0 2-.8954305 2-2v-16c0-1.1045695-.8954305-2-2-2zm-8 6c2.209139 0 4 1.790861 4 4s-1.790861 4-4 4-4-1.790861-4-4 1.790861-4 4-4zm-7.5 12c-.13515148.008941-.26758988-.0408593-.3633653-.1366347-.09577543-.0957754-.14557567-.2282138-.1366347-.3633653v-8.5h2.1c-.08268538.32653936-.11638679.66355343-.1 1-.00000003 2.1435936 1.1435935 4.1243557 2.99999997 5.1961525 1.85640648 1.0717968 4.14359363 1.0717968 6.00000003 0 1.8564065-1.0717968 3-3.0525589 3-5.1961525.0163868-.33644657-.0173146-.67346064-.1-1h2.1v8.5c.008941.1351515-.0408593.2675899-.1366347.3633653s-.2282138.1455757-.3633653.1366347zm15.5-13.5c.008941.13515148-.0408593.26758988-.1366347.3633653-.0957754.09577543-.2282138.14557567-.3633653.1366347h-2c-.1351515.00894097-.2675899-.04085927-.3633653-.1366347-.0957754-.09577542-.1455757-.22821382-.1366347-.3633653v-2c-.008941-.13515148.0408593-.26758988.1366347-.3633653.0957754-.09577543.2282138-.14557567.3633653-.1366347h2c.1351515-.00894097.2675899.04085927.3633653.1366347.0957754.09577542.1455757.22821382.1366347.3633653z" fill="#fff"/></svg>