<svg height="15" viewBox="0 0 27 15" width="27" xmlns="http://www.w3.org/2000/svg"><path d="m27 14.47-.09-.17c-.7146818-1.1222236-1.5907487-2.13307-2.6-3-.58-.5533333-.9466667-.9266667-1.1-1.12-.3240697-.30316656-.409578-.78364191-.21-1.18.3430288-.63453048.7519523-1.23115659 1.22-1.78l.88-1.16c1.5666667-2.08666667 2.2333333-3.42 2-4l-.1-.12c-.109136-.11062667-.2481292-.18707295-.4-.22-.2869408-.05957044-.5830592-.05957044-.87 0h-3.92c-.0883657-.02425615-.1816343-.02425615-.27 0h-.3c-.0576676.0377078-.1084094.0850668-.15.14-.0584213.07253821-.1056145.1534409-.14.24-.4080241 1.05569481-.8961112 2.078672-1.46 3.06-.3333333.56-.6433333 1.04666667-.93 1.46-.2112126.32236105-.4486863.62672877-.71.91-.1619861.16878153-.3357567.32584345-.52.47-.1533333.12-.27.17-.35.15l-.23-.05c-.1297663-.08178571-.2364764-.19538029-.31-.33-.0859744-.16512013-.1402443-.34488933-.16-.53v-4.64c.0204534-.20616061.0204534-.41383939 0-.62-.0305079-.15132639-.0774529-.29886792-.14-.44-.0578313-.13577367-.1554558-.25083118-.28-.33-.1428748-.0838966-.2981293-.14464835-.46-.18-.6073957-.07216017-1.2205654-.08221213-1.83-.03-1.0944087-.09077005-2.196173.0211014-3.25.33-.1968236.10390791-.37304132.24284882-.52.41-.16666667.2-.19.31-.07.33.4505412.0317125.8690258.24456242 1.16.59l.08.16c.0897592.20110572.1536037.41280072.19.63.0665391.32961022.1066665.66400511.12 1 .0455567.56575105.0455567 1.13424895 0 1.7-.0466667.47333333-.09.84-.13 1.1-.0273848.22118933-.0880713.43696363-.18.64-.0469539.10327383-.100394.20347393-.16.3l-.07.07c-.1177876.04655373-.2433466.07030815-.37.07-.1687085-.01661118-.3287446-.08271306-.46-.19-.20634871-.15085062-.39429851-.32537545-.56-.52-.24492747-.29153375-.46565978-.60256563-.66-.93-.24666667-.4-.5-.87333333-.76-1.42l-.22-.39c-.13333333-.25333333-.32-.62333333-.56-1.11s-.44666667-.96333333-.62-1.43c-.06139242-.17750806-.17678214-.33136102-.33-.44h-.07c-.06509465-.06382819-.13922077-.1177381-.22-.16-.09963361-.04152374-.20362013-.07171338-.31-.09l-3.73.03c-.28189953-.02624147-.56171123.0682404-.77.26l-.1.06c-.01862911.07215023-.01862911.14784977 0 .22.0046754.12708139.031758.25233842.08.37.54666667 1.29333333 1.14 2.53333333 1.78 3.72s1.19333333 2.14333333 1.66 2.87c.47333333.72666667.96666667 1.4133333 1.48 2.06s.84666667 1.06 1 1.24l.37.41.34.33c.3123289.2858618.64669704.546669 1 .78.45107532.3235871.91834796.6239767 1.4.9.5636562.3150695 1.1651687.5570187 1.79.72.6502068.1819179 1.3257966.2562328 2 .22h1.57c.268992-.0068156.525752-.1137989.72-.3l.05-.07c.0456809-.0778474.0793914-.1621237.1-.25.0166088-.1227742.0166088-.2472258 0-.37-.0114139-.3523219.0187951-.7047597.09-1.05.044287-.2459585.1216557-.4847924.23-.71.0771485-.1464485.1747994-.2811393.29-.4.0677767-.07625.1450773-.1434679.23-.2h.11c.275575-.0605488.5633217.0179275.77.21.3090603.2270562.5879675.4925222.83.79.26.3133333.57.6633333.93 1.05.3023736.3237773.6374981.6153357 1 .87l.27.16c.2241762.1273083.462458.2279908.71.3.2433527.0871589.5048209.1112415.76.07l3.48-.05c.2769653.0145297.5528758-.0441013.8-.17.1564171-.0753993.2780643-.20778.34-.37.0336715-.1514848.0336715-.3085152 0-.46-.0200841-.1232923-.0536175-.2440128-.1-.36z" fill="#fff" transform="translate(-1 -1)"/></svg>